<?xml version="1.0" encoding="utf-8"?>
<!-- Generator: Adobe Illustrator 26.0.0, SVG Export Plug-In . SVG Version: 6.00 Build 0)  -->
<svg version="1.1" id="Capa_1" xmlns="http://www.w3.org/2000/svg" xmlns:xlink="http://www.w3.org/1999/xlink" x="0px" y="0px"
	 viewBox="0 0 500 200" style="enable-background:new 0 0 500 200;" xml:space="preserve">
<style type="text/css">
	.st0{fill:#FFFFFF;}
</style>
<path class="st0" d="M-0.1,17h23l6.5,14.8c13-8.5,24.7-17.1,45.3-17.1c29.7,0,40.7,21.3,40.7,45.8v91.3H85.9V60.1
	c0-14.6-7.4-20.5-17.8-20.5c-16.5,0-25,4.2-38.8,12.7v99.4H-0.1L-0.1,17L-0.1,17z M137.8,17h29.4v134.8h-29.4
	C137.8,151.7,137.8,17,137.8,17z M190.3,17h23l6.5,14.8c13-8.5,24.7-17.1,45.3-17.1c29.7,0,40.7,21.3,40.7,45.8v91.3h-29.4V60.1
	c0-14.6-7.4-20.5-17.8-20.5c-16.5,0-25,4.2-38.8,12.7v99.4h-29.4L190.3,17L190.3,17z M470.4,17h29.4v134.8h-29.4V17z M387.2,14.6
	c46,0,60.7,17,60.7,70.5c0,50-14.2,66.7-60.7,66.7c-46.1,0-60.7-18.5-60.7-66.7C326.5,30,342.2,14.6,387.2,14.6z M387.2,126.8
	c22.7,0,31.3-3,31.3-41.7c0-41.6-7-45.5-31.3-45.5c-23.7,0-31.3,3.9-31.3,45.5C355.9,123.6,365.7,126.8,387.2,126.8z M398.3,160.6
	c8,9.5,20.1,8.2,31.2,4.8v19.1c-17.1,4.5-42.3-1.6-44.4-23.9H398.3z"/>
</svg>
